<svg xmlns="http://www.w3.org/2000/svg" xmlns:xlink="http://www.w3.org/1999/xlink" width="100%" height="100%" fill-rule="evenodd" stroke-linejoin="round" stroke-miterlimit="1.414" clip-rule="evenodd" version="1.1" viewBox="0 0 642 436" xml:space="preserve"><g transform="matrix(12.0251,0,0,3.96912,-1885.41,-152.46)"><rect width="51.578" height="51.58" x="157.501" y="41.736" fill="#fff"/></g><g transform="matrix(4.16667,0,0,4.16667,-235.515,41.1967)"><rect width="51.578" height="51.58" x="157.501" y="41.736" fill="#FECD00"/></g><g transform="matrix(4.16667,0,0,4.16667,-235.515,41.1925)"><rect width="51.575" height="51.579" x="107.734" y="41.737" fill="#1295C3"/></g><g><path fill="#1D1D1B" fill-rule="nonzero" d="M0,67.92L12.229,58.586C15.263,56.208 16.43,54.665 16.43,52.71C16.43,50.652 14.979,49.394 12.788,49.394C10.594,49.394 8.867,50.652 6.3,53.595L0.189,48.505C3.686,43.977 7.143,41.502 13.49,41.502C20.629,41.502 25.526,45.751 25.526,51.913L25.526,52.007C25.526,57.234 22.823,59.94 17.967,63.438L12.367,67.362L25.856,67.362L25.856,74.734L0,74.734L0,67.92ZM-32.179,64.236L-32.179,64.142C-32.179,61.811 -33.951,59.94 -36.796,59.94C-39.644,59.94 -41.325,61.76 -41.325,64.094L-41.325,64.189C-41.325,66.569 -39.552,68.437 -36.704,68.437C-33.858,68.437 -32.179,66.616 -32.179,64.236M-46.319,71.749C-48.746,69.321 -50.331,65.638 -50.331,59.522L-50.331,59.426C-50.331,49.255 -45.384,41.502 -35.163,41.502C-30.591,41.502 -27.414,42.766 -24.289,45.1L-28.536,51.494C-30.544,50.001 -32.412,49.022 -35.026,49.022C-38.849,49.022 -40.764,51.865 -41.187,55.976C-39.457,54.665 -37.358,53.452 -34.14,53.452C-28.397,53.452 -23.355,57.097 -23.355,63.628L-23.355,63.723C-23.355,71.05 -29.189,75.482 -36.331,75.482C-40.951,75.482 -43.982,74.083 -46.319,71.749M0.615,-6.088L24.682,-6.088L24.682,1.219L8.952,1.219L8.952,6.334L23.178,6.334L23.178,13.252L8.952,13.252L8.952,23.996L0.615,23.996L0.615,-6.088ZM-50.809,-6.088L-42.472,-6.088L-42.472,5.173L-31.772,5.173L-31.772,-6.088L-23.433,-6.088L-23.433,23.996L-31.772,23.996L-31.772,12.565L-42.472,12.565L-42.472,23.996L-50.809,23.996L-50.809,-6.088ZM-101.514,10.847L-101.514,-6.04L-93.048,-6.04L-93.048,10.677C-93.048,15.017 -90.854,17.082 -87.5,17.082C-84.15,17.082 -81.958,15.102 -81.958,10.891L-81.958,-6.04L-73.493,-6.04L-73.493,10.634C-73.493,20.347 -79.037,24.6 -87.585,24.6C-96.14,24.6 -101.514,20.261 -101.514,10.847M35.57,81.974L-10.274,81.974L-10.274,36.13L35.57,36.13L35.57,81.974ZM-14.199,81.974L-60.043,81.974L-60.043,36.13L-14.199,36.13L-14.199,81.974ZM-60.042,-14.056L-14.197,-14.056L-14.197,31.79L-14.576,31.79L-59.664,31.79L-60.042,31.79L-60.042,-14.056ZM-10.271,-14.053L35.572,-14.053L35.572,31.791L35.194,31.791L-9.895,31.791L-10.271,31.791L-10.271,-14.053ZM-64.58,31.789L-64.96,31.789L-110.049,31.789L-110.425,31.789L-110.425,-14.056L-64.58,-14.056L-64.58,31.789ZM39.878,-18.36L-114.119,-18.358L-114.119,36.096L-64.347,36.096L-64.347,86.28L39.876,86.28L39.876,36.011L39.878,36.011L39.878,-18.36Z" transform="matrix(4.16667,0,0,4.16667,475.496,76.5)"/></g></svg>